<svg xmlns="http://www.w3.org/2000/svg" xmlns:xlink="http://www.w3.org/1999/xlink" id="processonSvg1000" viewBox="53.0 65.0 1184.0 907.0" width="1184.0" height="907.0"><defs id="ProcessOnDefs1001"><marker id="ProcessOnMarker1041" markerUnits="userSpaceOnUse" orient="auto" markerWidth="14.289086868996552" markerHeight="19.055054660878554" viewBox="-0.5877852522924731 -0.8090169943749475 14.289086868996552 19.055054660878554" refX="12.0" refY="8.71851033606433"><path id="ProcessOnPath1042" d="M0 0L12.0 8.71851033606433L0 17.43702067212866" stroke="#323232" stroke-width="2.0" fill="none" transform="matrix(1.0,0.0,0.0,1.0,0.0,0.0)"/></marker><marker id="ProcessOnMarker1052" markerUnits="userSpaceOnUse" orient="auto" markerWidth="14.289086868996552" markerHeight="19.055054660878554" viewBox="-0.5877852522924731 -0.8090169943749475 14.289086868996552 19.055054660878554" refX="12.0" refY="8.71851033606433"><path id="ProcessOnPath1053" d="M0 0L12.0 8.71851033606433L0 17.43702067212866" stroke="#323232" stroke-width="2.0" fill="none" transform="matrix(1.0,0.0,0.0,1.0,0.0,0.0)"/></marker><marker id="ProcessOnMarker1067" markerUnits="userSpaceOnUse" orient="auto" markerWidth="14.289086868996552" markerHeight="19.055054660878554" viewBox="-0.5877852522924731 -0.8090169943749475 14.289086868996552 19.055054660878554" refX="12.0" refY="8.71851033606433"><path id="ProcessOnPath1068" d="M0 0L12.0 8.71851033606433L0 17.43702067212866" stroke="#323232" stroke-width="2.0" fill="none" transform="matrix(1.0,0.0,0.0,1.0,0.0,0.0)"/></marker><marker id="ProcessOnMarker1076" markerUnits="userSpaceOnUse" orient="auto" markerWidth="14.289086868996552" markerHeight="19.055054660878554" viewBox="-0.5877852522924731 -0.8090169943749475 14.289086868996552 19.055054660878554" refX="12.0" refY="8.71851033606433"><path id="ProcessOnPath1077" d="M0 0L12.0 8.71851033606433L0 17.43702067212866" stroke="#323232" stroke-width="2.0" fill="none" transform="matrix(1.0,0.0,0.0,1.0,0.0,0.0)"/></marker><marker id="ProcessOnMarker1092" markerUnits="userSpaceOnUse" orient="auto" markerWidth="14.289086868996552" markerHeight="19.055054660878554" viewBox="-0.5877852522924731 -0.8090169943749475 14.289086868996552 19.055054660878554" refX="12.0" refY="8.71851033606433"><path id="ProcessOnPath1093" d="M0 0L12.0 8.71851033606433L0 17.43702067212866" stroke="#323232" stroke-width="2.0" fill="none" transform="matrix(1.0,0.0,0.0,1.0,0.0,0.0)"/></marker><marker id="ProcessOnMarker1096" markerUnits="userSpaceOnUse" orient="auto" markerWidth="14.289086868996552" markerHeight="19.055054660878554" viewBox="-0.5877852522924731 -0.8090169943749475 14.289086868996552 19.055054660878554" refX="12.0" refY="8.71851033606433"><path id="ProcessOnPath1097" d="M0 0L12.0 8.71851033606433L0 17.43702067212866" stroke="#323232" stroke-width="2.0" fill="none" transform="matrix(1.0,0.0,0.0,1.0,0.0,0.0)"/></marker><marker id="ProcessOnMarker1103" markerUnits="userSpaceOnUse" orient="auto" markerWidth="14.289086868996552" markerHeight="19.055054660878554" viewBox="-0.5877852522924731 -0.8090169943749475 14.289086868996552 19.055054660878554" refX="12.0" refY="8.71851033606433"><path id="ProcessOnPath1104" d="M0 0L12.0 8.71851033606433L0 17.43702067212866" stroke="#323232" stroke-width="2.0" fill="none" transform="matrix(1.0,0.0,0.0,1.0,0.0,0.0)"/></marker><marker id="ProcessOnMarker1118" markerUnits="userSpaceOnUse" orient="auto" markerWidth="14.289086868996552" markerHeight="19.055054660878554" viewBox="-0.5877852522924731 -0.8090169943749475 14.289086868996552 19.055054660878554" refX="12.0" refY="8.71851033606433"><path id="ProcessOnPath1119" d="M0 0L12.0 8.71851033606433L0 17.43702067212866" stroke="#323232" stroke-width="2.0" fill="none" transform="matrix(1.0,0.0,0.0,1.0,0.0,0.0)"/></marker><marker id="ProcessOnMarker1125" markerUnits="userSpaceOnUse" orient="auto" markerWidth="14.289086868996552" markerHeight="19.055054660878554" viewBox="-0.5877852522924731 -0.8090169943749475 14.289086868996552 19.055054660878554" refX="12.0" refY="8.71851033606433"><path id="ProcessOnPath1126" d="M0 0L12.0 8.71851033606433L0 17.43702067212866" stroke="#323232" stroke-width="2.0" fill="none" transform="matrix(1.0,0.0,0.0,1.0,0.0,0.0)"/></marker><marker id="ProcessOnMarker1132" markerUnits="userSpaceOnUse" orient="auto" markerWidth="14.289086868996552" markerHeight="19.055054660878554" viewBox="-0.5877852522924731 -0.8090169943749475 14.289086868996552 19.055054660878554" refX="12.0" refY="8.71851033606433"><path id="ProcessOnPath1133" d="M0 0L12.0 8.71851033606433L0 17.43702067212866" stroke="#323232" stroke-width="2.0" fill="none" transform="matrix(1.0,0.0,0.0,1.0,0.0,0.0)"/></marker><marker id="ProcessOnMarker1139" markerUnits="userSpaceOnUse" orient="auto" markerWidth="14.289086868996552" markerHeight="19.055054660878554" viewBox="-0.5877852522924731 -0.8090169943749475 14.289086868996552 19.055054660878554" refX="12.0" refY="8.71851033606433"><path id="ProcessOnPath1140" d="M0 0L12.0 8.71851033606433L0 17.43702067212866" stroke="#323232" stroke-width="2.0" fill="none" transform="matrix(1.0,0.0,0.0,1.0,0.0,0.0)"/></marker><marker id="ProcessOnMarker1146" markerUnits="userSpaceOnUse" orient="auto" markerWidth="14.289086868996552" markerHeight="19.055054660878554" viewBox="-0.5877852522924731 -0.8090169943749475 14.289086868996552 19.055054660878554" refX="12.0" refY="8.71851033606433"><path id="ProcessOnPath1147" d="M0 0L12.0 8.71851033606433L0 17.43702067212866" stroke="#323232" stroke-width="2.0" fill="none" transform="matrix(1.0,0.0,0.0,1.0,0.0,0.0)"/></marker></defs><g id="ProcessOnG1002"><path id="ProcessOnPath1003" d="M53.0 65.0H1237.0V972.0H53.0V65.0Z" fill="none"/><g id="ProcessOnG1004"><g id="ProcessOnG1005" transform="matrix(1.0,0.0,0.0,1.0,388.0000000000001,85.0)" opacity="1.0"><path id="ProcessOnPath1006" d="M0.0 0.0L273.0 0.0L273.0 867.0L0.0 867.0Z" stroke="#2d6ec9" stroke-width="1.0" stroke-dasharray="none" fill="none"/><path id="ProcessOnPath1007" d="M0.0 0.0L273.0 0.0L273.0 40.0L0.0 40.0Z" stroke="#2d6ec9" stroke-width="1.0" stroke-dasharray="none" fill="#ffffff"/><g id="ProcessOnG1008" transform="matrix(1.0,0.0,0.0,1.0,10.0,8.75)"><text id="ProcessOnText1009" fill="#2d6ec9" font-size="18" x="125.5" y="18.45" font-family="Arial" font-weight="normal" font-style="normal" text-decoration="none" family="Arial" text-anchor="middle" size="18">登陆服务(loginService)</text></g></g><g id="ProcessOnG1010" transform="matrix(1.0,0.0,0.0,1.0,661.0000000000001,85.0)" opacity="1.0"><path id="ProcessOnPath1011" d="M0.0 0.0L277.0 0.0L277.0 867.0L0.0 867.0Z" stroke="#2d6ec9" stroke-width="1.0" stroke-dasharray="none" fill="none"/><path id="ProcessOnPath1012" d="M0.0 0.0L277.0 0.0L277.0 40.0L0.0 40.0Z" stroke="#2d6ec9" stroke-width="1.0" stroke-dasharray="none" fill="#ffffff"/><g id="ProcessOnG1013" transform="matrix(1.0,0.0,0.0,1.0,10.0,8.75)"><text id="ProcessOnText1014" fill="#2d6ec9" font-size="18" x="127.5" y="18.45" font-family="Arial" font-weight="normal" font-style="normal" text-decoration="none" family="Arial" text-anchor="middle" size="18">(用户服务)UserService</text></g></g><g id="ProcessOnG1015" transform="matrix(1.0,0.0,0.0,1.0,938.0000000000001,85.0)" opacity="1.0"><path id="ProcessOnPath1016" d="M0.0 0.0L279.0 0.0L279.0 867.0L0.0 867.0Z" stroke="#2d6ec9" stroke-width="1.0" stroke-dasharray="none" fill="none"/><path id="ProcessOnPath1017" d="M0.0 0.0L279.0 0.0L279.0 40.0L0.0 40.0Z" stroke="#2d6ec9" stroke-width="1.0" stroke-dasharray="none" fill="#ffffff"/><g id="ProcessOnG1018" transform="matrix(1.0,0.0,0.0,1.0,10.0,8.75)"><text id="ProcessOnText1019" fill="#2d6ec9" font-size="18" x="128.5" y="18.45" font-family="Arial" font-weight="normal" font-style="normal" text-decoration="none" family="Arial" text-anchor="middle" size="18">(缓存服务器)Redis</text></g></g><g id="ProcessOnG1020" transform="matrix(1.0,0.0,0.0,1.0,440.5,167.0)" opacity="1.0"><path id="ProcessOnPath1021" d="M0.0 0.0L141.0 0.0L141.0 53.0L0.0 53.0Z" stroke="none" stroke-width="0.0" stroke-dasharray="none" fill="#2d6ec9"/><g id="ProcessOnG1022" transform="matrix(1.0,0.0,0.0,1.0,10.0,15.25)"><text id="ProcessOnText1023" fill="#ffffff" font-size="18" x="59.5" y="18.45" font-family="Arial" font-weight="normal" font-style="normal" text-decoration="none" family="Arial" text-anchor="middle" size="18">验证用户</text></g></g><g id="ProcessOnG1024" transform="matrix(1.0,0.0,0.0,1.0,729.0000000000001,626.25)" opacity="1.0"><path id="ProcessOnPath1025" d="M0.0 0.0L141.0 0.0L141.0 49.0L0.0 49.0Z" stroke="none" stroke-width="0.0" stroke-dasharray="none" fill="#2d6ec9"/><g id="ProcessOnG1026" transform="matrix(1.0,0.0,0.0,1.0,10.0,2.0)"><text id="ProcessOnText1027" fill="#ffffff" font-size="18" x="59.5" y="18.45" font-family="Arial" font-weight="normal" font-style="normal" text-decoration="none" family="Arial" text-anchor="middle" size="18">更新状态(db更新</text><text id="ProcessOnText1028" fill="#ffffff" font-size="18" x="59.5" y="40.95" font-family="Arial" font-weight="normal" font-style="normal" text-decoration="none" family="Arial" text-anchor="middle" size="18">状态)</text></g></g><g id="ProcessOnG1029" transform="matrix(1.0,0.0,0.0,1.0,109.00000000000011,85.0)" opacity="1.0"><path id="ProcessOnPath1030" d="M0.0 0.0L279.0 0.0L279.0 867.0L0.0 867.0Z" stroke="#2d6ec9" stroke-width="1.0" stroke-dasharray="none" fill="none"/><path id="ProcessOnPath1031" d="M0.0 0.0L279.0 0.0L279.0 40.0L0.0 40.0Z" stroke="#2d6ec9" stroke-width="1.0" stroke-dasharray="none" fill="#ffffff"/><g id="ProcessOnG1032" transform="matrix(1.0,0.0,0.0,1.0,10.0,8.75)"><text id="ProcessOnText1033" fill="#2d6ec9" font-size="18" x="128.5" y="18.45" font-family="Arial" font-weight="normal" font-style="normal" text-decoration="none" family="Arial" text-anchor="middle" size="18">WEB</text></g></g><g id="ProcessOnG1034" transform="matrix(1.0,0.0,0.0,1.0,178.0000000000001,167.0)" opacity="1.0"><path id="ProcessOnPath1035" d="M0.0 0.0L141.0 0.0L141.0 53.0L0.0 53.0Z" stroke="none" stroke-width="0.0" stroke-dasharray="none" fill="#2d6ec9"/><g id="ProcessOnG1036" transform="matrix(1.0,0.0,0.0,1.0,10.0,10.25)"><text id="ProcessOnText1037" fill="#ffffff" font-size="13" x="59.5" y="13.325" font-family="Arial" font-weight="normal" font-style="normal" text-decoration="none" family="Arial" text-anchor="middle" size="13">登陆Controller(maven</text><text id="ProcessOnText1038" fill="#ffffff" font-size="13" x="59.5" y="29.575" font-family="Arial" font-weight="normal" font-style="normal" text-decoration="none" family="Arial" text-anchor="middle" size="13">引用自封装shiro jar包)</text></g></g><g id="ProcessOnG1039"><path id="ProcessOnPath1040" d="M73.0 194.0L124.0 194.0L124.0 194.0L175.0 194.0" stroke="#323232" stroke-width="2.0" stroke-dasharray="none" fill="none" marker-end="url(#ProcessOnMarker1041)"/><g id="ProcessOnG1043" transform="matrix(1.0,0.0,0.0,1.0,124.0,185.875)"><path id="ProcessOnPath1044" d="M0 0H20.0V16.25H0Z" fill="#fff" transform="matrix(1.0,0.0,0.0,1.0,-10.0,0.0)"/><text id="ProcessOnText1045" fill="#323232" font-size="13" x="0.0" y="13.325" font-family="Arial" font-weight="normal" font-style="normal" text-decoration="none" family="Arial" text-anchor="middle" size="13">登陆</text></g></g><g id="ProcessOnG1046" transform="matrix(1.0,0.0,0.0,1.0,466.0,294.0)" opacity="1.0"><path id="ProcessOnPath1047" d="M0.0 35.0L45.0 0.0L90.0 35.0L45.0 70.0L0.0 35.0Z" stroke="#323232" stroke-width="2.0" stroke-dasharray="none" fill="#ffffff"/><g id="ProcessOnG1048" transform="matrix(1.0,0.0,0.0,1.0,10.0,26.875)"><text id="ProcessOnText1049" fill="#323232" font-size="13" x="34.0" y="13.325" font-family="Arial" font-weight="normal" font-style="normal" text-decoration="none" family="Arial" text-anchor="middle" size="13">是否存在</text></g></g><g id="ProcessOnG1050"><path id="ProcessOnPath1051" d="M465.0 328.0L248.5000000000001 328.0L248.5000000000001 220.0" stroke="#323232" stroke-width="2.0" stroke-dasharray="none" fill="none" marker-end="url(#ProcessOnMarker1052)"/><g id="ProcessOnG1054" transform="matrix(1.0,0.0,0.0,1.0,302.75000000000006,319.875)"><path id="ProcessOnPath1055" d="M0 0H92.0V16.25H0Z" fill="#fff" transform="matrix(1.0,0.0,0.0,1.0,-46.0,0.0)"/><text id="ProcessOnText1056" fill="#323232" font-size="13" x="0.0" y="13.325" font-family="Arial" font-weight="normal" font-style="normal" text-decoration="none" family="Arial" text-anchor="middle" size="13">不存在用户 / 已禁用</text></g></g><g id="ProcessOnG1057" transform="matrix(1.0,0.0,0.0,1.0,461.0,425.0)" opacity="1.0"><path id="ProcessOnPath1058" d="M0.0 0.0L100.0 0.0L100.0 70.0L0.0 70.0Z" stroke="#323232" stroke-width="2.0" stroke-dasharray="none" fill="#ffffff"/><g id="ProcessOnG1059" transform="matrix(1.0,0.0,0.0,1.0,10.0,26.875)"><text id="ProcessOnText1060" fill="#323232" font-size="13" x="39.0" y="13.325" font-family="Arial" font-weight="normal" font-style="normal" text-decoration="none" family="Arial" text-anchor="middle" size="13">生成token</text></g></g><g id="ProcessOnG1061" transform="matrix(1.0,0.0,0.0,1.0,1044.5,425.0)" opacity="1.0"><path id="ProcessOnPath1062" d="M0.0 0.0L136.0 0.0L136.0 70.0L0.0 70.0Z" stroke="#323232" stroke-width="2.0" stroke-dasharray="none" fill="#ffffff"/><g id="ProcessOnG1063" transform="matrix(1.0,0.0,0.0,1.0,10.0,26.875)"><text id="ProcessOnText1064" fill="#323232" font-size="13" x="57.0" y="13.325" font-family="Arial" font-weight="normal" font-style="normal" text-decoration="none" family="Arial" text-anchor="middle" size="13">token：用户信息</text></g></g><g id="ProcessOnG1065"><path id="ProcessOnPath1066" d="M511.0 363.0L511.0 394.0L511.0 394.0L511.0 425.0" stroke="#323232" stroke-width="2.0" stroke-dasharray="none" fill="none" marker-end="url(#ProcessOnMarker1067)"/></g><g id="ProcessOnG1069" transform="matrix(1.0,0.0,0.0,1.0,561.0,307.0)" opacity="1.0"><path id="ProcessOnPath1070" d="M0.0 59.0C0.0 -19.666666666666668 112.0 -19.666666666666668 112.0 59.0Q109.75999999999999 115.64 56.0 118.0Q37.333333333333336 118.0 18.666666666666668 106.2L0.0 118.0L13.104000000000001 101.126Q0.0 82.6 0.0 59.0" stroke="#323232" stroke-width="2.0" stroke-dasharray="none" fill="#ffffff"/><g id="ProcessOnG1071" transform="matrix(1.0,0.0,0.0,1.0,10.0,42.75)"><text id="ProcessOnText1072" fill="#323232" font-size="13" x="45.0" y="13.325" font-family="Arial" font-weight="normal" font-style="normal" text-decoration="none" family="Arial" text-anchor="middle" size="13">先生成token，存</text><text id="ProcessOnText1073" fill="#323232" font-size="13" x="45.0" y="29.575" font-family="Arial" font-weight="normal" font-style="normal" text-decoration="none" family="Arial" text-anchor="middle" size="13">入reids中，在返回</text></g></g><g id="ProcessOnG1074"><path id="ProcessOnPath1075" d="M461.0 460.0L207.0 460.0L207.0 220.0" stroke="#323232" stroke-width="2.0" stroke-dasharray="none" fill="none" marker-end="url(#ProcessOnMarker1076)"/><g id="ProcessOnG1078" transform="matrix(1.0,0.0,0.0,1.0,214.0,451.875)"><path id="ProcessOnPath1079" d="M0 0H52.0V16.25H0Z" fill="#fff" transform="matrix(1.0,0.0,0.0,1.0,-26.0,0.0)"/><text id="ProcessOnText1080" fill="#323232" font-size="13" x="0.0" y="13.325" font-family="Arial" font-weight="normal" font-style="normal" text-decoration="none" family="Arial" text-anchor="middle" size="13">返回token</text></g></g><g id="ProcessOnG1081" transform="matrix(1.0,0.0,0.0,1.0,178.0000000000001,626.5)" opacity="1.0"><path id="ProcessOnPath1082" d="M0.0 0.0L141.0 0.0L141.0 53.0L0.0 53.0Z" stroke="none" stroke-width="0.0" stroke-dasharray="none" fill="#2d6ec9"/><g id="ProcessOnG1083" transform="matrix(1.0,0.0,0.0,1.0,10.0,10.25)"><text id="ProcessOnText1084" fill="#ffffff" font-size="13" x="59.5" y="13.325" font-family="Arial" font-weight="normal" font-style="normal" text-decoration="none" family="Arial" text-anchor="middle" size="13">更改用户状态controller(</text><text id="ProcessOnText1085" fill="#ffffff" font-size="13" x="59.5" y="29.575" font-family="Arial" font-weight="normal" font-style="normal" text-decoration="none" family="Arial" text-anchor="middle" size="13">禁用/启用)</text></g></g><g id="ProcessOnG1086" transform="matrix(1.0,0.0,0.0,1.0,999.5,630.75)" opacity="1.0"><path id="ProcessOnPath1087" d="M0.0 0.0L183.9999999999999 0.0L183.9999999999999 44.5L0.0 44.5Z" stroke="#323232" stroke-width="2.0" stroke-dasharray="none" fill="#ffffff"/><g id="ProcessOnG1088" transform="matrix(1.0,0.0,0.0,1.0,10.0,14.125)"><text id="ProcessOnText1089" fill="#323232" font-size="13" x="80.99999999999994" y="13.325" font-family="Arial" font-weight="normal" font-style="normal" text-decoration="none" family="Arial" text-anchor="middle" size="13">set=&gt;id, id, id(禁用用户id)</text></g></g><g id="ProcessOnG1090"><path id="ProcessOnPath1091" d="M324.0 651.0L526.5 651.0L526.5 650.75L729.0000000000001 650.75" stroke="#323232" stroke-width="2.0" stroke-dasharray="none" fill="none" marker-end="url(#ProcessOnMarker1092)"/></g><g id="ProcessOnG1094"><path id="ProcessOnPath1095" d="M74.0 653.0L126.00000000000006 653.0L126.00000000000006 653.0L178.0000000000001 653.0" stroke="#323232" stroke-width="2.0" stroke-dasharray="none" fill="none" marker-end="url(#ProcessOnMarker1096)"/><g id="ProcessOnG1098" transform="matrix(1.0,0.0,0.0,1.0,126.00000000000006,644.875)"><path id="ProcessOnPath1099" d="M0 0H40.0V16.25H0Z" fill="#fff" transform="matrix(1.0,0.0,0.0,1.0,-20.0,0.0)"/><text id="ProcessOnText1100" fill="#323232" font-size="13" x="0.0" y="13.325" font-family="Arial" font-weight="normal" font-style="normal" text-decoration="none" family="Arial" text-anchor="middle" size="13">更新状态</text></g></g><g id="ProcessOnG1101"><path id="ProcessOnPath1102" d="M870.0000000000001 650.75L934.75 650.75L934.75 653.0L999.5 653.0" stroke="#323232" stroke-width="2.0" stroke-dasharray="none" fill="none" marker-end="url(#ProcessOnMarker1103)"/><g id="ProcessOnG1105" transform="matrix(1.0,0.0,0.0,1.0,934.75,643.75)"><path id="ProcessOnPath1106" d="M0 0H82.0V16.25H0Z" fill="#fff" transform="matrix(1.0,0.0,0.0,1.0,-41.0,0.0)"/><text id="ProcessOnText1107" fill="#323232" font-size="13" x="0.0" y="13.325" font-family="Arial" font-weight="normal" font-style="normal" text-decoration="none" family="Arial" text-anchor="middle" size="13">增加 / 删除黑名单</text></g></g><g id="ProcessOnG1108" transform="matrix(1.0,0.0,0.0,1.0,182.0000000000001,883.0599975585938)" opacity="1.0"><path id="ProcessOnPath1109" d="M0.0 0.0L141.0 0.0L141.0 53.0L0.0 53.0Z" stroke="none" stroke-width="0.0" stroke-dasharray="none" fill="#2d6ec9"/><g id="ProcessOnG1110" transform="matrix(1.0,0.0,0.0,1.0,10.0,18.375)"><text id="ProcessOnText1111" fill="#ffffff" font-size="13" x="59.5" y="13.325" font-family="Arial" font-weight="normal" font-style="normal" text-decoration="none" family="Arial" text-anchor="middle" size="13">controller</text></g></g><g id="ProcessOnG1112" transform="matrix(1.0,0.0,0.0,1.0,182.0000000000001,754.0599975585938)" opacity="1.0"><path id="ProcessOnPath1113" d="M0.0 0.0L141.0 0.0L141.0 53.0L0.0 53.0Z" stroke="none" stroke-width="0.0" stroke-dasharray="none" fill="#2d6ec9"/><g id="ProcessOnG1114" transform="matrix(1.0,0.0,0.0,1.0,10.0,18.375)"><text id="ProcessOnText1115" fill="#ffffff" font-size="13" x="59.5" y="13.325" font-family="Arial" font-weight="normal" font-style="normal" text-decoration="none" family="Arial" text-anchor="middle" size="13">shiro jar包(filter)</text></g></g><g id="ProcessOnG1116"><path id="ProcessOnPath1117" d="M1180.5 460.0L1210.5 460.0L1210.5 761.0L323.0 761.0" stroke="#323232" stroke-width="2.0" stroke-dasharray="none" fill="none" marker-end="url(#ProcessOnMarker1118)"/><g id="ProcessOnG1120" transform="matrix(1.0,0.0,0.0,1.0,932.25,752.875)"><path id="ProcessOnPath1121" d="M0 0H210.0V16.25H0Z" fill="#fff" transform="matrix(1.0,0.0,0.0,1.0,-105.0,0.0)"/><text id="ProcessOnText1122" fill="#323232" font-size="13" x="0.0" y="13.325" font-family="Arial" font-weight="normal" font-style="normal" text-decoration="none" family="Arial" text-anchor="middle" size="13">获取 验证 token / 获取个人用户信息(用户id)</text></g></g><g id="ProcessOnG1123"><path id="ProcessOnPath1124" d="M1091.5 675.25L1091.5 800.4790554669992L322.0455767409634 800.4790554669992" stroke="#323232" stroke-width="2.0" stroke-dasharray="none" fill="none" marker-end="url(#ProcessOnMarker1125)"/><g id="ProcessOnG1127" transform="matrix(1.0,0.0,0.0,1.0,769.3873161039812,792.3540554669992)"><path id="ProcessOnPath1128" d="M0 0H110.0V16.25H0Z" fill="#fff" transform="matrix(1.0,0.0,0.0,1.0,-55.0,0.0)"/><text id="ProcessOnText1129" fill="#323232" font-size="13" x="0.0" y="13.325" font-family="Arial" font-weight="normal" font-style="normal" text-decoration="none" family="Arial" text-anchor="middle" size="13">判断用户是否在黑名单内</text></g></g><g id="ProcessOnG1130"><path id="ProcessOnPath1131" d="M252.5000000000001 807.0599975585938L252.5000000000001 845.0599975585938L252.5000000000001 845.0599975585938L252.5000000000001 883.0599975585938" stroke="#323232" stroke-width="2.0" stroke-dasharray="none" fill="none" marker-end="url(#ProcessOnMarker1132)"/><g id="ProcessOnG1134" transform="matrix(1.0,0.0,0.0,1.0,252.5000000000001,836.9349975585938)"><path id="ProcessOnPath1135" d="M0 0H136.0V16.25H0Z" fill="#fff" transform="matrix(1.0,0.0,0.0,1.0,-68.0,0.0)"/><text id="ProcessOnText1136" fill="#323232" font-size="13" x="0.0" y="13.325" font-family="Arial" font-weight="normal" font-style="normal" text-decoration="none" family="Arial" text-anchor="middle" size="13">token正常 / 黑名单不存在ID</text></g></g><g id="ProcessOnG1137"><path id="ProcessOnPath1138" d="M95.0 930.0L137.5 930.0L137.5 930.0L180.0 930.0" stroke="#323232" stroke-width="2.0" stroke-dasharray="none" fill="none" marker-end="url(#ProcessOnMarker1139)"/><g id="ProcessOnG1141" transform="matrix(1.0,0.0,0.0,1.0,137.5,921.875)"><path id="ProcessOnPath1142" d="M0 0H20.0V16.25H0Z" fill="#fff" transform="matrix(1.0,0.0,0.0,1.0,-10.0,0.0)"/><text id="ProcessOnText1143" fill="#323232" font-size="13" x="0.0" y="13.325" font-family="Arial" font-weight="normal" font-style="normal" text-decoration="none" family="Arial" text-anchor="middle" size="13">调用</text></g></g><g id="ProcessOnG1144"><path id="ProcessOnPath1145" d="M182.93185165257813 889.5176380902051L152.0000000000001 889.5176380902051L152.0000000000001 780.5599975585938L182.0000000000001 780.5599975585938" stroke="#323232" stroke-width="2.0" stroke-dasharray="none" fill="none" marker-end="url(#ProcessOnMarker1146)"/><g id="ProcessOnG1148" transform="matrix(1.0,0.0,0.0,1.0,152.0000000000001,827.3797436506884)"><path id="ProcessOnPath1149" d="M0 0H30.0V16.25H0Z" fill="#fff" transform="matrix(1.0,0.0,0.0,1.0,-15.0,0.0)"/><text id="ProcessOnText1150" fill="#323232" font-size="13" x="0.0" y="13.325" font-family="Arial" font-weight="normal" font-style="normal" text-decoration="none" family="Arial" text-anchor="middle" size="13">先执行</text></g></g><g id="ProcessOnG1151" transform="matrix(1.0,0.0,0.0,1.0,729.0000000000001,167.0)" opacity="1.0"><path id="ProcessOnPath1152" d="M0.0 0.0L141.0 0.0L141.0 53.0L0.0 53.0Z" stroke="none" stroke-width="0.0" stroke-dasharray="none" fill="#2d6ec9"/><g id="ProcessOnG1153" transform="matrix(1.0,0.0,0.0,1.0,10.0,4.0)"><text id="ProcessOnText1154" fill="#ffffff" font-size="18" x="59.5" y="18.45" font-family="Arial" font-weight="normal" font-style="normal" text-decoration="none" family="Arial" text-anchor="middle" size="18">根据权限类型获取I</text><text id="ProcessOnText1155" fill="#ffffff" font-size="18" x="59.5" y="40.95" font-family="Arial" font-weight="normal" font-style="normal" text-decoration="none" family="Arial" text-anchor="middle" size="18">D集合</text></g></g><g id="ProcessOnG1156" transform="matrix(1.0,0.0,0.0,1.0,870.0000000000001,107.0)" opacity="1.0"><path id="ProcessOnPath1157" d="M0.0 43.5C0.0 -14.5 105.0 -14.5 105.0 43.5Q102.89999999999999 85.26 52.5 87.0Q35.0 87.0 17.5 78.3L0.0 87.0L12.285 74.559Q0.0 60.9 0.0 43.5" stroke="#323232" stroke-width="2.0" stroke-dasharray="none" fill="#ffffff"/><g id="ProcessOnG1158" transform="matrix(1.0,0.0,0.0,1.0,10.0,2.875)"><text id="ProcessOnText1159" fill="#323232" font-size="13" x="41.5" y="13.325" font-family="Arial" font-weight="normal" font-style="normal" text-decoration="none" family="Arial" text-anchor="middle" size="13">0:无权限</text><text id="ProcessOnText1160" fill="#323232" font-size="13" x="41.5" y="29.575" font-family="Arial" font-weight="normal" font-style="normal" text-decoration="none" family="Arial" text-anchor="middle" size="13">1:个人权限</text><text id="ProcessOnText1161" fill="#323232" font-size="13" x="41.5" y="45.825" font-family="Arial" font-weight="normal" font-style="normal" text-decoration="none" family="Arial" text-anchor="middle" size="13">2:本部门及下属部</text><text id="ProcessOnText1162" fill="#323232" font-size="13" x="41.5" y="62.075" font-family="Arial" font-weight="normal" font-style="normal" text-decoration="none" family="Arial" text-anchor="middle" size="13">门</text><text id="ProcessOnText1163" fill="#323232" font-size="13" x="41.5" y="78.325" font-family="Arial" font-weight="normal" font-style="normal" text-decoration="none" family="Arial" text-anchor="middle" size="13">3:全公司</text></g></g><g id="ProcessOnG1164" transform="matrix(1.0,0.0,0.0,1.0,1044.5,286.0)" opacity="1.0"><path id="ProcessOnPath1165" d="M0.0 0.0L136.0 0.0L136.0 53.0L0.0 53.0Z" stroke="#323232" stroke-width="2.0" stroke-dasharray="none" fill="#ffffff"/><g id="ProcessOnG1166" transform="matrix(1.0,0.0,0.0,1.0,10.0,18.375)"><text id="ProcessOnText1167" fill="#323232" font-size="13" x="57.0" y="13.325" font-family="Arial" font-weight="normal" font-style="normal" text-decoration="none" family="Arial" text-anchor="middle" size="13">userid-ids=&gt;id,id,id</text></g></g><g id="ProcessOnG1168" transform="matrix(1.0,0.0,0.0,1.0,599.0,859.0)" opacity="1.0"><path id="ProcessOnPath1169" d="M0.0 0.0L160.0 0.0L160.0 40.0L0.0 40.0Z" stroke="none" stroke-width="0.0" stroke-dasharray="none" fill="none"/><g id="ProcessOnG1170" transform="matrix(1.0,0.0,0.0,1.0,0.0,-4.375)"><text id="ProcessOnText1171" fill="#323232" font-size="13" x="79.0" y="13.325" font-family="Arial" font-weight="normal" font-style="normal" text-decoration="none" family="Arial" text-anchor="middle" size="13">如如果有需要调用reids获取人员id</text><text id="ProcessOnText1172" fill="#323232" font-size="13" x="79.0" y="29.575" font-family="Arial" font-weight="normal" font-style="normal" text-decoration="none" family="Arial" text-anchor="middle" size="13">集合，如果reids中没有，调用服务</text><text id="ProcessOnText1173" fill="#323232" font-size="13" x="79.0" y="45.825" font-family="Arial" font-weight="normal" font-style="normal" text-decoration="none" family="Arial" text-anchor="middle" size="13">获取存入redis中</text></g></g></g></g></svg>